<svg xmlns="http://www.w3.org/2000/svg" width="38" height="31" fill="none" viewBox="0 0 38 31">
  <path fill="#BDBDBD" d="M33.24 28.229H4.76c-1.46 0-2.649-1.22-2.649-2.726V4.897c0-1.505 1.189-2.726 2.65-2.726h28.478c1.463 0 2.65 1.22 2.65 2.726v20.606c0 1.505-1.187 2.726-2.65 2.726z"/>
  <path fill="#E9E9E9" fill-rule="evenodd" d="M4.76 30.4h28.48c2.624 0 4.76-2.197 4.76-4.897V4.897C38 2.197 35.864 0 33.24 0H4.76C2.137 0 0 2.197 0 4.897v20.606c0 2.7 2.136 4.897 4.76 4.897zM4.223 4.897c0-.307.239-.554.539-.554h28.478c.298 0 .539.247.539.554v20.606c0 .307-.24.554-.539.554H4.761a.544.544 0 01-.539-.554V4.897z" clip-rule="evenodd"/>
  <path fill="#C4C4C4" d="M35.889 4.897c0-1.505-1.187-2.726-2.65-2.726H17.428c-1.465 0-2.65 1.22-2.65 2.726v20.606c0 1.505 1.185 2.726 2.65 2.726h3.146c1.463 0 2.65-1.22 2.65-2.726v-11.92c0-1.506 1.186-2.726 2.649-2.726h7.367c1.464 0 2.65-1.22 2.65-2.725V4.897z"/>
  <path fill="#E9E9E9" fill-rule="evenodd" d="M17.427 30.4h3.146c2.624 0 4.76-2.197 4.76-4.897v-11.92c0-.307.239-.554.539-.554h7.367c2.625 0 4.761-2.198 4.761-4.897V4.897C38 2.197 35.864 0 33.24 0H17.426c-2.624 0-4.76 2.197-4.76 4.897v20.606c0 2.7 2.136 4.897 4.76 4.897zM16.89 4.897c0-.307.238-.554.538-.554H33.24c.298 0 .539.247.539.554v3.235c0 .306-.24.554-.539.554h-7.367c-2.625 0-4.76 2.197-4.76 4.896v11.921c0 .307-.242.554-.54.554h-3.145a.544.544 0 01-.538-.554V4.897z" clip-rule="evenodd"/>
  <path fill="#E9E9E9" d="M35.889 21.714H23.222c-1.167 0-2.11-.972-2.11-2.171 0-1.199.943-2.171 2.11-2.171H35.89c1.167 0 2.111.972 2.111 2.171 0 1.199-.944 2.171-2.111 2.171zM14.778 13.028H2.11C.944 13.028 0 12.056 0 10.857c0-1.199.944-2.171 2.111-2.171h12.667c1.167 0 2.11.972 2.11 2.171 0 1.199-.943 2.171-2.11 2.171zM14.778 21.714H2.11C.944 21.714 0 20.742 0 19.543c0-1.199.944-2.171 2.111-2.171h12.667c1.167 0 2.11.972 2.11 2.171 0 1.199-.943 2.171-2.11 2.171z"/>
</svg>
