<svg xmlns="http://www.w3.org/2000/svg" width="93" height="20" fill="none" viewBox="0 0 93 20">
  <path fill="#fff" d="M5.164 6.056c.48 0 .896.06 1.248.18.352.112.656.272.912.48.504.408.832.98.984 1.716l-1.512.276c-.128-.408-.328-.736-.6-.984-.264-.256-.596-.384-.996-.384-.544 0-.984.228-1.32.684-.36.496-.54 1.184-.54 2.064 0 .872.16 1.556.48 2.052.32.488.756.732 1.308.732s.968-.132 1.248-.396c.28-.272.42-.62.42-1.044H8.32c0 .872-.28 1.548-.84 2.028-.552.472-1.312.708-2.28.708-1.032 0-1.852-.36-2.46-1.08-.616-.736-.924-1.736-.924-3 0-1.28.316-2.28.948-3 .608-.688 1.408-1.032 2.4-1.032zm7.226 6.708h3.204V14h-4.62V6.212h1.416v6.552zm5.501-6.552h5.016v1.224h-3.6v2.052h3.372v1.224h-3.372v2.052h3.6V14h-5.016V6.212zm9.844 0h1.776L32.067 14h-1.5l-.54-1.68h-2.892L26.583 14h-1.5l2.652-7.788zm-.24 5.04h2.184l-1.08-3.348-1.104 3.348zm8.475-5.04l3.432 5.52v-5.52h1.416V14h-1.44l-3.54-5.712V14h-1.416V6.212h1.548zm13.913 0h1.776L54.215 14h-1.5l-.54-1.68h-2.892L48.731 14h-1.5l2.652-7.788zm-.24 5.04h2.184l-1.08-3.348-1.104 3.348zm8.368 1.512h3.204V14h-4.62V6.212h1.416v6.552zm6.93 0h3.203V14h-4.62V6.212h1.416v6.552z"/>
  <path fill="#8F92A1" fill-opacity=".2" fill-rule="evenodd" d="M83.795 19a9 9 0 100-18 9 9 0 000 18z" clip-rule="evenodd"/>
  <path fill="#8F92A1" fill-rule="evenodd" d="M86.624 13.771l-2.829-2.828-2.828 2.828-.943-.943L82.852 10l-2.828-2.828.943-.943 2.828 2.828 2.829-2.828.942.943L84.738 10l2.828 2.829-.942.942z" clip-rule="evenodd"/>
  <mask id="a" width="8" height="8" x="80" y="6" maskUnits="userSpaceOnUse" style="mask-type:alpha">
    <path fill="#fff" fill-rule="evenodd" d="M86.624 13.771l-2.829-2.828-2.828 2.828-.943-.943L82.852 10l-2.828-2.828.943-.943 2.828 2.828 2.829-2.828.942.943L84.738 10l2.828 2.829-.942.942z" clip-rule="evenodd"/>
  </mask>
</svg>
