<svg xmlns="http://www.w3.org/2000/svg" width="38" height="38" fill="none" viewBox="0 0 38 38">
  <path fill="#8F92A1" fill-opacity=".2" fill-rule="evenodd" d="M19 38c10.493 0 19-8.507 19-19S29.493 0 19 0 0 8.507 0 19s8.507 19 19 19z" clip-rule="evenodd"/>
  <path fill="#fff" fill-rule="evenodd" d="M15 19.667h8v-1.334h-8v1.334zM13 15v1.333h12V15H13zm4.667 8h2.666v-1.333h-2.666V23z" clip-rule="evenodd"/>
  <mask id="a" width="12" height="8" x="13" y="15" maskUnits="userSpaceOnUse" style="mask-type:alpha">
    <path fill="#fff" fill-rule="evenodd" d="M15 19.667h8v-1.334h-8v1.334zM13 15v1.333h12V15H13zm4.667 8h2.666v-1.333h-2.666V23z" clip-rule="evenodd"/>
  </mask>
</svg>
