<svg xmlns="http://www.w3.org/2000/svg" width="81" height="22" fill="none" viewBox="0 0 81 22">
  <path fill="#fff" d="M2.113 5.616h6.544v1.632H4.001v2.736h4.256V11.6H4.001V16H2.113V5.616zm7.91 2.592h1.888V16h-1.888V8.208zm-.224-2.496c0-.341.101-.608.304-.8.203-.203.49-.304.864-.304.363 0 .645.101.848.304.213.192.32.459.32.8s-.107.613-.32.816c-.203.192-.485.288-.848.288-.373 0-.661-.096-.864-.288-.203-.203-.304-.475-.304-.816zm4.314-.688h1.888V16h-1.888V5.024zm8.243 10.784c-.704.277-1.258.416-1.664.416-.405 0-.762-.048-1.072-.144a2.419 2.419 0 01-.8-.432c-.49-.437-.736-1.04-.736-1.808V9.488h-1.088V8.224h1.088V6.176h1.888v2.048h2.112v1.264h-2.112v4.288c0 .64.304.96.912.96.31 0 .71-.085 1.2-.256l.272 1.328zm6.353-6.656c.267.341.464.736.592 1.184.139.448.208.859.208 1.232s-.021.71-.064 1.008H24.42c.021.63.176 1.141.464 1.536.288.395.725.592 1.312.592.779 0 1.242-.341 1.392-1.024h1.904c-.128.779-.485 1.392-1.072 1.84-.608.47-1.35.704-2.224.704-1.024 0-1.883-.373-2.576-1.12-.715-.779-1.072-1.776-1.072-2.992 0-1.248.357-2.25 1.072-3.008.683-.725 1.541-1.088 2.576-1.088 1.077 0 1.915.379 2.512 1.136zm-2.496.368c-.534 0-.95.176-1.248.528-.299.341-.475.784-.528 1.328h3.312c0-.843-.267-1.408-.8-1.696a1.563 1.563 0 00-.736-.16zm6.444.24c.47-1.12 1.174-1.68 2.112-1.68.182 0 .41.037.688.112l-.032 1.888a4.193 4.193 0 00-.88-.096c-1.258 0-1.888.87-1.888 2.608V16H30.77V8.208h1.888V9.76zm4.825 3.872c.02.736.56 1.104 1.615 1.104.406 0 .736-.085.992-.256.267-.181.4-.39.4-.624 0-.235-.08-.416-.24-.544-.16-.128-.41-.245-.752-.352l-1.696-.608c-1.258-.437-1.888-1.152-1.888-2.144 0-.661.294-1.19.88-1.584.598-.405 1.392-.608 2.385-.608 1.002 0 1.77.219 2.303.656.544.437.827.987.849 1.648h-1.776a.78.78 0 00-.369-.608c-.224-.15-.544-.224-.96-.224-.416 0-.74.085-.976.256-.224.16-.336.347-.336.56 0 .373.315.65.945.832l1.84.688c.608.203 1.072.464 1.392.784.33.31.495.715.495 1.216 0 .64-.303 1.195-.912 1.664-.629.49-1.46.736-2.495.736-1.035 0-1.867-.224-2.496-.672-.63-.459-.95-1.099-.96-1.92h1.76z"/>
  <path fill="#fff" fill-rule="evenodd" d="M65.5 13h12v-2h-12v2zm-3-7v2h18V6h-18zm7 12h4v-2h-4v2z" clip-rule="evenodd"/>
  <mask id="a" width="19" height="12" x="62" y="6" maskUnits="userSpaceOnUse" style="mask-type:alpha">
    <path fill="#fff" fill-rule="evenodd" d="M65.5 13h12v-2h-12v2zm-3-7v2h18V6h-18zm7 12h4v-2h-4v2z" clip-rule="evenodd"/>
  </mask>
</svg>
