<svg xmlns="http://www.w3.org/2000/svg" width="12" height="12" fill="none" viewBox="0 0 12 12">
  <path fill="#171717" fill-rule="evenodd" d="M9.333 10L6 8.547 2.667 10V1.333h6.666V10zm0-10H2.667C1.93 0 1.333.597 1.333 1.333V12L6 10l4.667 2V1.333c0-.74-.6-1.333-1.334-1.333z" clip-rule="evenodd"/>
  <mask id="a" width="10" height="12" x="1" y="0" maskUnits="userSpaceOnUse" style="mask-type:alpha">
    <path fill="#fff" fill-rule="evenodd" d="M9.333 10L6 8.547 2.667 10V1.333h6.666V10zm0-10H2.667C1.93 0 1.333.597 1.333 1.333V12L6 10l4.667 2V1.333c0-.74-.6-1.333-1.334-1.333z" clip-rule="evenodd"/>
  </mask>
</svg>
