<svg xmlns="http://www.w3.org/2000/svg" width="12" height="12" fill="none" viewBox="0 0 12 12">
  <path fill="#171717" fill-rule="evenodd" d="M2 2h3v3H2V2zm8 0v3H7V2h3zM7 7.5h1v-1H7v-1h1v1h1v-1h1v1H9v1h1V9H9v1H8V9H6.5v1h-1V8H7v-.5zm1 0V9h1V7.5H8zM2 10V7h3v3H2zm1-7v1h1V3H3zm5 0v1h1V3H8zM3 8v1h1V8H3zM2 5.5h1v1H2v-1zm2.5 0h2v2h-1v-1h-1v-1zm1-2.5h1v2h-1V3zM1 1v2H0V1a1 1 0 011-1h2v1H1zm10-1a1 1 0 011 1v2h-1V1H9V0h2zM1 9v2h2v1H1a1 1 0 01-1-1V9h1zm10 2V9h1v2a1 1 0 01-1 1H9v-1h2z" clip-rule="evenodd"/>
  <mask id="a" width="12" height="12" x="0" y="0" maskUnits="userSpaceOnUse" style="mask-type:alpha">
    <path fill="#fff" fill-rule="evenodd" d="M2 2h3v3H2V2zm8 0v3H7V2h3zM7 7.5h1v-1H7v-1h1v1h1v-1h1v1H9v1h1V9H9v1H8V9H6.5v1h-1V8H7v-.5zm1 0V9h1V7.5H8zM2 10V7h3v3H2zm1-7v1h1V3H3zm5 0v1h1V3H8zM3 8v1h1V8H3zM2 5.5h1v1H2v-1zm2.5 0h2v2h-1v-1h-1v-1zm1-2.5h1v2h-1V3zM1 1v2H0V1a1 1 0 011-1h2v1H1zm10-1a1 1 0 011 1v2h-1V1H9V0h2zM1 9v2h2v1H1a1 1 0 01-1-1V9h1zm10 2V9h1v2a1 1 0 01-1 1H9v-1h2z" clip-rule="evenodd"/>
  </mask>
</svg>
