<svg xmlns="http://www.w3.org/2000/svg" width="38" height="24" fill="none" viewBox="0 0 38 24">
  <path fill="#FFCD00" d="M22.973 11.393c0 3.629-1.722 6.864-4.396 8.952a11.551 11.551 0 007.098 2.44c6.334 0 11.487-5.11 11.487-11.393C37.162 5.112 32.009 0 25.676 0c-2.59 0-5.086.871-7.095 2.437 2.67 2.09 4.392 5.326 4.392 8.956z"/>
  <path fill="#FF5023" d="M22.973 11.393c0-3.63-1.722-6.866-4.396-8.953A11.486 11.486 0 0011.487 0C5.152 0 0 5.11 0 11.393c0 6.281 5.153 11.392 11.486 11.392 2.675 0 5.137-.914 7.091-2.44 2.674-2.087 4.396-5.323 4.396-8.952z"/>
</svg>
