<svg xmlns="http://www.w3.org/2000/svg" width="40" height="40" fill="none" viewBox="0 0 40 40">
  <path stroke="#171717" stroke-opacity=".2" stroke-width="2" d="M20 39c10.493 0 19-8.507 19-19S30.493 1 20 1 1 9.507 1 20s8.507 19 19 19z" clip-rule="evenodd"/>
  <path fill="#171717" fill-rule="evenodd" d="M18.333 14a4.333 4.333 0 013.294 7.153l.18.18h.526l3.334 3.334-1 1-3.334-3.334v-.526l-.18-.18A4.333 4.333 0 1118.333 14zm0 1.333c-1.666 0-3 1.334-3 3 0 1.667 1.334 3 3 3 1.667 0 3-1.333 3-3 0-1.666-1.333-3-3-3z" clip-rule="evenodd"/>
  <mask id="a" width="12" height="12" x="14" y="14" maskUnits="userSpaceOnUse" style="mask-type:alpha">
    <path fill="#fff" fill-rule="evenodd" d="M18.333 14a4.333 4.333 0 013.294 7.153l.18.18h.526l3.334 3.334-1 1-3.334-3.334v-.526l-.18-.18A4.333 4.333 0 1118.333 14zm0 1.333c-1.666 0-3 1.334-3 3 0 1.667 1.334 3 3 3 1.667 0 3-1.333 3-3 0-1.666-1.333-3-3-3z" clip-rule="evenodd"/>
  </mask>
</svg>
